<svg width="35" height="34" viewBox="0 0 35 34" fill="none" xmlns="http://www.w3.org/2000/svg">
<path fill-rule="evenodd" clip-rule="evenodd" d="M32.4542 8.42698C32.6666 7.65348 32.4542 7.08398 31.4372 7.08398H28.0792C27.2247 7.08398 26.8307 7.57556 26.617 8.11813C26.617 8.11813 24.9093 12.6458 22.4902 15.5868C21.7073 16.4396 21.3517 16.7103 20.9244 16.7103C20.7108 16.7103 20.3897 16.4396 20.3897 15.6648V8.42698C20.3897 7.49763 20.1543 7.08398 19.4431 7.08398H14.1624C13.6289 7.08398 13.3078 7.51463 13.3078 7.92406C13.3078 8.80384 14.518 9.00784 14.6421 11.4841V16.8646C14.6421 18.0448 14.4464 18.2586 14.0191 18.2586C12.8806 18.2586 10.111 13.7098 8.46721 8.50491C8.14865 7.49198 7.82628 7.08398 6.96792 7.08398H3.60737C2.64794 7.08398 2.45605 7.57556 2.45605 8.11813C2.45605 9.08434 3.59458 13.884 7.75849 20.2321C10.5344 24.5671 14.4425 26.9173 18.0026 26.9173C20.1377 26.9173 20.4012 26.396 20.4012 25.4964V22.2196C20.4012 21.1756 20.6034 20.9673 21.28 20.9673C21.7789 20.9673 22.6322 21.2393 24.6253 23.3289C26.9023 25.8066 27.2771 26.9173 28.5589 26.9173H31.917C32.8764 26.9173 33.3574 26.396 33.0811 25.3646C32.7766 24.339 31.6892 22.8501 30.2475 21.0835C29.4646 20.0776 28.2903 18.9939 27.9334 18.4513C27.4357 17.7558 27.5778 17.4455 27.9334 16.8264C27.9334 16.8264 32.0269 10.5563 32.453 8.42698H32.4542Z" fill="white"/>
</svg>
